<svg width="324" height="422" viewBox="0 0 324 422" fill="none" xmlns="http://www.w3.org/2000/svg">
<path d="M231.737 335.381H13.1592C6.68067 335.381 1.44287 330.033 1.44287 323.366V31.191C1.44287 24.5244 6.68067 19.1761 13.1592 19.1761H231.784C238.262 19.1761 243.5 24.5244 243.5 31.191L243.5 323.363C243.5 323.364 243.5 323.365 243.5 323.365C243.454 329.987 238.213 335.381 231.737 335.381Z" fill="#F2F2F2" stroke="#2F495E"/>
<path d="M56.8089 124.283H36.2291C30.7318 124.283 26.2212 119.71 26.2212 114.03V92.9474C26.2212 87.3157 30.6848 82.6948 36.2291 82.6948H56.8089C62.3062 82.6948 66.8169 87.2676 66.8169 92.9474V114.03C66.8169 119.71 62.3532 124.283 56.8089 124.283Z" fill="#E6E6E6"/>
<path d="M56.8089 182.237H36.2291C30.7318 182.237 26.2212 177.664 26.2212 171.984V150.901C26.2212 145.269 30.6848 140.649 36.2291 140.649H56.8089C62.3062 140.649 66.8169 145.221 66.8169 150.901V171.984C66.8169 177.664 62.3532 182.237 56.8089 182.237Z" fill="#E6E6E6"/>
<path d="M220.413 90.8776H87.8195V100.697H220.413V90.8776Z" fill="#01C58E"/>
<path d="M220.413 111.672H87.8195V121.491H220.413V111.672Z" fill="#01C58E"/>
<path d="M220.413 146.136H87.8195V155.955H220.413V146.136Z" fill="#01C58E"/>
<path d="M220.413 166.93H87.8195V176.749H220.413V166.93Z" fill="#01C58E"/>
<path d="M220.413 201.442H87.8195V211.262H220.413V201.442Z" fill="#CCCCCC"/>
<path d="M220.413 222.188H87.8195V232.008H220.413V222.188Z" fill="#CCCCCC"/>
<path d="M220.413 256.701H87.8195V266.52H220.413V256.701Z" fill="#CCCCCC"/>
<path d="M220.413 277.446H87.8195V287.266H220.413V277.446Z" fill="#CCCCCC"/>
<path d="M56.8089 237.639H36.2291C30.7318 237.639 26.2212 233.066 26.2212 227.387V206.304C26.2212 200.672 30.6848 196.051 36.2291 196.051H56.8089C62.3062 196.051 66.8169 200.624 66.8169 206.304V227.387C66.8169 233.066 62.3532 237.639 56.8089 237.639Z" fill="#E6E6E6"/>
<path d="M56.8089 293.042H36.2291C30.7318 293.042 26.2212 288.469 26.2212 282.789V261.706C26.2212 256.075 30.6848 251.454 36.2291 251.454H56.8089C62.3062 251.454 66.8169 256.027 66.8169 261.706V282.789C66.8169 288.469 62.3532 293.042 56.8089 293.042Z" fill="#E6E6E6"/>
<path d="M71.1865 78.7478L46.8949 103.633L36.0412 92.5142L28.8524 99.9269L46.8949 118.41L47.6467 117.64L54.1307 111.046L78.4223 86.1605L71.1865 78.7478Z" fill="#108774"/>
<path d="M71.1865 134.728L46.8949 159.614L36.0412 148.494L28.8524 155.859L46.8949 174.391L47.6467 173.572L54.1307 166.978L78.4223 142.093L71.1865 134.728Z" fill="#108774"/>
<path d="M33.551 51.6481C40.9206 51.6481 46.8949 45.5278 46.8949 37.978C46.8949 30.4282 40.9206 24.3078 33.551 24.3078C26.1813 24.3078 20.207 30.4282 20.207 37.978C20.207 45.5278 26.1813 51.6481 33.551 51.6481Z" fill="#CCCCCC"/>
<path d="M78.4223 51.6481C85.792 51.6481 91.7662 45.5278 91.7662 37.978C91.7662 30.4282 85.792 24.3078 78.4223 24.3078C71.0526 24.3078 65.0784 30.4282 65.0784 37.978C65.0784 45.5278 71.0526 51.6481 78.4223 51.6481Z" fill="#CCCCCC"/>
<path d="M123.247 51.6481C130.616 51.6481 136.591 45.5278 136.591 37.978C136.591 30.4282 130.616 24.3078 123.247 24.3078C115.877 24.3078 109.903 30.4282 109.903 37.978C109.903 45.5278 115.877 51.6481 123.247 51.6481Z" fill="#CCCCCC"/>
<path d="M168.118 51.6481C175.488 51.6481 181.462 45.5278 181.462 37.978C181.462 30.4282 175.488 24.3078 168.118 24.3078C160.748 24.3078 154.774 30.4282 154.774 37.978C154.774 45.5278 160.748 51.6481 168.118 51.6481Z" fill="#CCCCCC"/>
<path d="M212.942 51.6481C220.312 51.6481 226.286 45.5278 226.286 37.978C226.286 30.4282 220.312 24.3078 212.942 24.3078C205.573 24.3078 199.598 30.4282 199.598 37.978C199.598 45.5278 205.573 51.6481 212.942 51.6481Z" fill="#CCCCCC"/>
<path d="M33.551 44.1873C29.5102 44.1873 26.2212 40.8179 26.2212 36.6784V7.50895C26.2212 3.3694 29.5102 0 33.551 0C37.5917 0 40.8807 3.3694 40.8807 7.50895V36.6784C40.8807 40.8179 37.5917 44.1873 33.551 44.1873Z" fill="#2F495E"/>
<path d="M78.4223 44.1873C74.3815 44.1873 71.0926 40.8179 71.0926 36.6784V7.50895C71.0926 3.3694 74.3815 0 78.4223 0C82.4631 0 85.7521 3.3694 85.7521 7.50895V36.6784C85.7051 40.8179 82.4631 44.1873 78.4223 44.1873Z" fill="#2F495E"/>
<path d="M123.247 44.1873C119.206 44.1873 115.917 40.8179 115.917 36.6784V7.50895C115.917 3.3694 119.206 0 123.247 0C127.287 0 130.576 3.3694 130.576 7.50895V36.6784C130.576 40.8179 127.287 44.1873 123.247 44.1873Z" fill="#2F495E"/>
<path d="M168.118 44.1873C164.077 44.1873 160.788 40.8179 160.788 36.6784V7.50895C160.788 3.3694 164.077 0 168.118 0C172.159 0 175.448 3.3694 175.448 7.50895V36.6784C175.401 40.8179 172.159 44.1873 168.118 44.1873Z" fill="#2F495E"/>
<path d="M212.942 44.1873C208.902 44.1873 205.613 40.8179 205.613 36.6784V7.50895C205.613 3.3694 208.902 0 212.942 0C216.983 0 220.272 3.3694 220.272 7.50895V36.6784C220.272 40.8179 216.983 44.1873 212.942 44.1873Z" fill="#2F495E"/>
<g clip-path="url(#clip0_0_1)">
<path d="M279.97 378.191C311.176 347.14 311.176 296.796 279.97 265.745C248.764 234.694 198.169 234.694 166.963 265.745C135.757 296.796 135.757 347.14 166.963 378.191C198.169 409.242 248.764 409.242 279.97 378.191Z" fill="#01C58E"/>
<path d="M275.242 371.103C303.176 343.309 303.176 298.245 275.242 270.45C247.308 242.655 202.019 242.655 174.085 270.45C146.152 298.245 146.152 343.309 174.085 371.103C202.019 398.898 247.308 398.898 275.242 371.103Z" fill="#2F495E"/>
<path d="M270.659 368.925C296.722 342.992 296.722 300.944 270.659 275.01C244.595 249.077 202.338 249.077 176.274 275.01C150.211 300.944 150.211 342.992 176.274 368.925C202.338 394.859 244.595 394.859 270.659 368.925Z" fill="white"/>
<path d="M229.603 321.968C229.603 322.84 229.417 323.667 229.086 324.417L278.536 297.846L225.948 316.387C228.1 317.336 229.603 319.476 229.603 321.968Z" fill="#2F495E"/>
<path d="M223.468 315.863C224.253 315.863 225.001 316.015 225.691 316.283L211.496 283.85L218.947 317.851C220.069 316.632 221.676 315.863 223.468 315.863Z" fill="#2F495E"/>
<path d="M229.603 321.968C229.603 319.476 228.1 317.336 225.948 316.387C225.864 316.35 225.777 316.316 225.691 316.283C225.001 316.015 224.253 315.863 223.468 315.863C221.676 315.863 220.069 316.632 218.947 317.851C217.947 318.937 217.332 320.379 217.332 321.968C217.332 325.34 220.079 328.073 223.468 328.073C225.98 328.073 228.137 326.568 229.086 324.417C229.417 323.667 229.603 322.84 229.603 321.968Z" fill="#01C58E"/>
<path d="M222.57 269.556C221.747 269.556 221.074 268.886 221.074 268.067V259.133C221.074 258.314 221.747 257.644 222.57 257.644C223.393 257.644 224.066 258.314 224.066 259.133V268.067C224.066 268.886 223.393 269.556 222.57 269.556Z" fill="#2F495E"/>
<path d="M274.646 321.372C274.646 320.553 275.319 319.883 276.142 319.883H285.121C285.944 319.883 286.617 320.553 286.617 321.372C286.617 322.191 285.944 322.861 285.121 322.861H276.142C275.319 322.861 274.646 322.191 274.646 321.372Z" fill="#2F495E"/>
<path d="M259.393 284.733C258.811 284.153 258.811 283.206 259.393 282.627L265.742 276.31C266.324 275.73 267.276 275.73 267.858 276.31C268.44 276.889 268.44 277.836 267.858 278.415L261.509 284.733C260.927 285.312 259.975 285.312 259.393 284.733Z" fill="#2F495E"/>
<path d="M231.549 379.889C229.019 379.889 226.523 379.744 224.066 379.472V383.612C224.066 384.431 223.393 385.101 222.57 385.101C221.747 385.101 221.074 384.431 221.074 383.612V379.073C207.099 376.881 194.568 370.373 184.897 360.964L179.398 366.435C178.816 367.014 177.864 367.014 177.282 366.435C176.7 365.856 176.7 364.908 177.282 364.329L182.804 358.835C173.67 349.12 167.437 336.675 165.474 322.861H160.019C159.196 322.861 158.523 322.191 158.523 321.372C158.523 320.553 159.196 319.883 160.019 319.883H165.118C164.915 317.776 164.808 315.641 164.808 313.481C164.808 297.89 170.222 283.566 179.261 272.235C165.446 284.402 156.727 302.167 156.727 321.968C156.727 358.644 186.608 388.377 223.468 388.377C244.659 388.377 263.53 378.538 275.756 363.213C263.981 373.583 248.509 379.889 231.549 379.889Z" fill="#DADADA"/>
<path d="M259.393 358.012C259.975 357.433 260.927 357.433 261.509 358.012L267.858 364.329C268.44 364.909 268.44 365.856 267.858 366.435C267.276 367.014 266.324 367.014 265.742 366.435L259.393 360.118C258.811 359.539 258.811 358.591 259.393 358.012Z" fill="#2F495E"/>
<path d="M177.282 276.31C177.864 275.731 178.816 275.731 179.398 276.31L185.747 282.627C186.329 283.206 186.329 284.154 185.747 284.733C185.165 285.312 184.213 285.312 183.631 284.733L177.282 278.415C176.7 277.836 176.7 276.889 177.282 276.31Z" fill="#2F495E"/>
<path d="M228.384 321.828C228.642 323.508 226.513 324.625 225.978 322.991C225.016 320.049 223.825 320.035 222.404 319.092C220.548 317.861 221.432 316.698 223.16 316.698C224.887 316.698 227.766 317.792 228.384 321.828Z" fill="#FFD500"/>
<path d="M222.57 385.101C221.747 385.101 221.074 384.431 221.074 383.612V374.678C221.074 373.859 221.747 373.189 222.57 373.189C223.393 373.189 224.066 373.859 224.066 374.678V383.612C224.066 384.431 223.393 385.101 222.57 385.101Z" fill="#2F495E"/>
<path d="M158.523 321.372C158.523 320.553 159.196 319.883 160.019 319.883H168.998C169.821 319.883 170.494 320.553 170.494 321.372C170.494 322.191 169.821 322.861 168.998 322.861H160.019C159.196 322.861 158.523 322.191 158.523 321.372Z" fill="#2F495E"/>
<path d="M177.282 366.435C176.7 365.856 176.7 364.908 177.282 364.329L183.631 358.012C184.213 357.433 185.165 357.433 185.747 358.012C186.329 358.591 186.329 359.539 185.747 360.118L179.398 366.435C178.816 367.014 177.864 367.014 177.282 366.435Z" fill="#2F495E"/>
<path d="M227.919 312.667L214.12 283.333L273.08 297.723L227.919 312.667Z" fill="#01C58E" stroke="#01C58E"/>
</g>
<defs>
<clipPath id="clip0_0_1">
<rect width="201" height="200" fill="white" transform="translate(123 222)"/>
</clipPath>
</defs>
</svg>
