<svg width="329" height="417" viewBox="0 0 329 417" fill="none" xmlns="http://www.w3.org/2000/svg">
<path d="M316.737 335.881H98.1592C91.3932 335.881 85.9429 330.298 85.9429 323.367V31.191C85.9429 24.2597 91.3932 18.6761 98.1592 18.6761H316.784C323.55 18.6761 329 24.2597 329 31.191V323.367C328.953 330.25 323.503 335.881 316.737 335.881Z" fill="#F2F2F2"/>
<path d="M141.809 124.283H121.229C115.732 124.283 111.221 119.71 111.221 114.03V92.9474C111.221 87.3157 115.685 82.6948 121.229 82.6948H141.809C147.306 82.6948 151.817 87.2676 151.817 92.9474V114.03C151.817 119.71 147.353 124.283 141.809 124.283Z" fill="#E6E6E6"/>
<path d="M141.809 182.237H121.229C115.732 182.237 111.221 177.664 111.221 171.984V150.901C111.221 145.269 115.685 140.649 121.229 140.649H141.809C147.306 140.649 151.817 145.221 151.817 150.901V171.984C151.817 177.664 147.353 182.237 141.809 182.237Z" fill="#E6E6E6"/>
<path d="M305.413 90.8776H172.819V100.697H305.413V90.8776Z" fill="#01C58E"/>
<path d="M305.413 111.672H172.819V121.491H305.413V111.672Z" fill="#01C58E"/>
<path d="M305.413 146.136H172.819V155.955H305.413V146.136Z" fill="#01C58E"/>
<path d="M305.413 166.93H172.819V176.749H305.413V166.93Z" fill="#01C58E"/>
<path d="M305.413 201.442H172.819V211.262H305.413V201.442Z" fill="#CCCCCC"/>
<path d="M305.413 222.188H172.819V232.008H305.413V222.188Z" fill="#CCCCCC"/>
<path d="M305.413 256.701H172.819V266.52H305.413V256.701Z" fill="#CCCCCC"/>
<path d="M305.413 277.446H172.819V287.266H305.413V277.446Z" fill="#CCCCCC"/>
<path d="M141.809 237.639H121.229C115.732 237.639 111.221 233.066 111.221 227.387V206.304C111.221 200.672 115.685 196.051 121.229 196.051H141.809C147.306 196.051 151.817 200.624 151.817 206.304V227.387C151.817 233.066 147.353 237.639 141.809 237.639Z" fill="#E6E6E6"/>
<path d="M141.809 293.042H121.229C115.732 293.042 111.221 288.469 111.221 282.789V261.706C111.221 256.075 115.685 251.454 121.229 251.454H141.809C147.306 251.454 151.817 256.027 151.817 261.706V282.789C151.817 288.469 147.353 293.042 141.809 293.042Z" fill="#E6E6E6"/>
<path d="M156.187 78.7478L131.895 103.633L121.041 92.5142L113.852 99.9269L131.895 118.41L132.647 117.64L139.131 111.046L163.422 86.1605L156.187 78.7478Z" fill="#108774"/>
<path d="M156.187 134.728L131.895 159.614L121.041 148.494L113.852 155.859L131.895 174.391L132.647 173.572L139.131 166.978L163.422 142.093L156.187 134.728Z" fill="#108774"/>
<path d="M118.551 51.6481C125.921 51.6481 131.895 45.5278 131.895 37.978C131.895 30.4282 125.921 24.3078 118.551 24.3078C111.181 24.3078 105.207 30.4282 105.207 37.978C105.207 45.5278 111.181 51.6481 118.551 51.6481Z" fill="#CCCCCC"/>
<path d="M163.422 51.6481C170.792 51.6481 176.766 45.5278 176.766 37.978C176.766 30.4282 170.792 24.3078 163.422 24.3078C156.053 24.3078 150.078 30.4282 150.078 37.978C150.078 45.5278 156.053 51.6481 163.422 51.6481Z" fill="#CCCCCC"/>
<path d="M208.247 51.6481C215.616 51.6481 221.591 45.5278 221.591 37.978C221.591 30.4282 215.616 24.3078 208.247 24.3078C200.877 24.3078 194.903 30.4282 194.903 37.978C194.903 45.5278 200.877 51.6481 208.247 51.6481Z" fill="#CCCCCC"/>
<path d="M253.118 51.6481C260.488 51.6481 266.462 45.5278 266.462 37.978C266.462 30.4282 260.488 24.3078 253.118 24.3078C245.748 24.3078 239.774 30.4282 239.774 37.978C239.774 45.5278 245.748 51.6481 253.118 51.6481Z" fill="#CCCCCC"/>
<path d="M297.942 51.6481C305.312 51.6481 311.286 45.5278 311.286 37.978C311.286 30.4282 305.312 24.3078 297.942 24.3078C290.573 24.3078 284.598 30.4282 284.598 37.978C284.598 45.5278 290.573 51.6481 297.942 51.6481Z" fill="#CCCCCC"/>
<path d="M118.551 44.1873C114.51 44.1873 111.221 40.8179 111.221 36.6784V7.50895C111.221 3.3694 114.51 0 118.551 0C122.592 0 125.881 3.3694 125.881 7.50895V36.6784C125.881 40.8179 122.592 44.1873 118.551 44.1873Z" fill="#2F495E"/>
<path d="M163.422 44.1873C159.382 44.1873 156.093 40.8179 156.093 36.6784V7.50895C156.093 3.3694 159.382 0 163.422 0C167.463 0 170.752 3.3694 170.752 7.50895V36.6784C170.705 40.8179 167.463 44.1873 163.422 44.1873Z" fill="#2F495E"/>
<path d="M208.247 44.1873C204.206 44.1873 200.917 40.8179 200.917 36.6784V7.50895C200.917 3.3694 204.206 0 208.247 0C212.287 0 215.576 3.3694 215.576 7.50895V36.6784C215.576 40.8179 212.287 44.1873 208.247 44.1873Z" fill="#2F495E"/>
<path d="M253.118 44.1873C249.077 44.1873 245.788 40.8179 245.788 36.6784V7.50895C245.788 3.3694 249.077 0 253.118 0C257.159 0 260.448 3.3694 260.448 7.50895V36.6784C260.401 40.8179 257.159 44.1873 253.118 44.1873Z" fill="#2F495E"/>
<path d="M297.942 44.1873C293.902 44.1873 290.613 40.8179 290.613 36.6784V7.50895C290.613 3.3694 293.902 0 297.942 0C301.983 0 305.272 3.3694 305.272 7.50895V36.6784C305.272 40.8179 301.983 44.1873 297.942 44.1873Z" fill="#2F495E"/>
<g clip-path="url(#clip0_0_1)">
<path d="M156.97 373.191C188.176 342.14 188.176 291.796 156.97 260.745C125.764 229.694 75.1688 229.694 43.9627 260.745C12.7565 291.796 12.7565 342.14 43.9627 373.191C75.1688 404.242 125.764 404.242 156.97 373.191Z" fill="#01C58E"/>
<path d="M152.242 366.103C180.176 338.309 180.176 293.245 152.242 265.45C124.308 237.655 79.019 237.655 51.0854 265.45C23.1517 293.245 23.1517 338.309 51.0854 366.103C79.019 393.898 124.308 393.898 152.242 366.103Z" fill="#2F495E"/>
<path d="M147.659 363.925C173.722 337.992 173.722 295.944 147.659 270.01C121.595 244.077 79.3377 244.077 53.2741 270.01C27.2106 295.944 27.2106 337.992 53.2741 363.925C79.3377 389.859 121.595 389.859 147.659 363.925Z" fill="white"/>
<path d="M106.603 316.968C106.603 317.84 106.417 318.667 106.086 319.417L155.536 292.846L102.948 311.387C105.1 312.336 106.603 314.476 106.603 316.968Z" fill="#2F495E"/>
<path d="M100.468 310.863C101.253 310.863 102.001 311.015 102.691 311.283L88.4964 278.85L95.9471 312.851C97.0688 311.632 98.6762 310.863 100.468 310.863Z" fill="#2F495E"/>
<path d="M106.603 316.968C106.603 314.476 105.1 312.336 102.948 311.387C102.864 311.35 102.777 311.316 102.691 311.283C102.001 311.015 101.253 310.863 100.468 310.863C98.6761 310.863 97.0688 311.632 95.9471 312.851C94.9475 313.937 94.3324 315.379 94.3324 316.968C94.3324 320.34 97.0793 323.073 100.468 323.073C102.98 323.073 105.137 321.568 106.086 319.417C106.417 318.667 106.603 317.84 106.603 316.968Z" fill="#01C58E"/>
<path d="M99.5699 264.556C98.7469 264.556 98.0735 263.886 98.0735 263.067V254.133C98.0735 253.314 98.7469 252.644 99.5699 252.644C100.393 252.644 101.066 253.314 101.066 254.133V263.067C101.066 263.886 100.393 264.556 99.5699 264.556Z" fill="#2F495E"/>
<path d="M151.646 316.372C151.646 315.553 152.319 314.883 153.142 314.883H162.121C162.944 314.883 163.617 315.553 163.617 316.372C163.617 317.191 162.944 317.861 162.121 317.861H153.142C152.319 317.861 151.646 317.191 151.646 316.372Z" fill="#2F495E"/>
<path d="M136.393 279.733C135.811 279.153 135.811 278.206 136.393 277.627L142.742 271.31C143.324 270.73 144.276 270.73 144.858 271.31C145.44 271.889 145.44 272.836 144.858 273.415L138.509 279.733C137.927 280.312 136.975 280.312 136.393 279.733Z" fill="#2F495E"/>
<path d="M108.549 374.889C106.019 374.889 103.523 374.744 101.066 374.472V378.612C101.066 379.431 100.393 380.101 99.57 380.101C98.747 380.101 98.0736 379.431 98.0736 378.612V374.073C84.0988 371.881 71.5676 365.373 61.8966 355.964L56.3982 361.435C55.8163 362.014 54.8639 362.014 54.282 361.435C53.7 360.856 53.7 359.908 54.282 359.329L59.8036 353.835C50.67 344.12 44.437 331.675 42.4738 317.861H37.0194C36.1964 317.861 35.523 317.191 35.523 316.372C35.523 315.553 36.1964 314.883 37.0194 314.883H42.1179C41.9152 312.776 41.8078 310.641 41.8078 308.481C41.8078 292.89 47.2216 278.566 56.2612 267.235C42.4464 279.402 33.7275 297.167 33.7275 316.968C33.7275 353.644 63.6081 383.377 100.468 383.377C121.659 383.377 140.53 373.538 152.756 358.213C140.981 368.583 125.509 374.889 108.549 374.889Z" fill="#DADADA"/>
<path d="M136.393 353.012C136.975 352.433 137.927 352.433 138.509 353.012L144.858 359.329C145.44 359.909 145.44 360.856 144.858 361.435C144.276 362.014 143.324 362.014 142.742 361.435L136.393 355.118C135.811 354.539 135.811 353.591 136.393 353.012Z" fill="#2F495E"/>
<path d="M54.2819 271.31C54.8638 270.731 55.8162 270.731 56.3981 271.31L62.747 277.627C63.3289 278.206 63.3289 279.154 62.747 279.733C62.165 280.312 61.2127 280.312 60.6307 279.733L54.2819 273.415C53.6999 272.836 53.6999 271.889 54.2819 271.31Z" fill="#2F495E"/>
<path d="M105.384 316.828C105.642 318.508 103.513 319.625 102.978 317.991C102.016 315.049 100.825 315.035 99.4038 314.092C97.5477 312.861 98.4325 311.698 100.16 311.698C101.887 311.698 104.766 312.792 105.384 316.828Z" fill="#FFD500"/>
<path d="M99.5699 380.101C98.7469 380.101 98.0735 379.431 98.0735 378.612V369.678C98.0735 368.859 98.7469 368.189 99.5699 368.189C100.393 368.189 101.066 368.859 101.066 369.678V378.612C101.066 379.431 100.393 380.101 99.5699 380.101Z" fill="#2F495E"/>
<path d="M35.5228 316.372C35.5228 315.553 36.1962 314.883 37.0192 314.883H45.9978C46.8209 314.883 47.4943 315.553 47.4943 316.372C47.4943 317.191 46.8209 317.861 45.9978 317.861H37.0192C36.1963 317.861 35.5228 317.191 35.5228 316.372Z" fill="#2F495E"/>
<path d="M54.2819 361.435C53.6999 360.856 53.6999 359.908 54.2819 359.329L60.6307 353.012C61.2127 352.433 62.165 352.433 62.747 353.012C63.3289 353.591 63.3289 354.539 62.747 355.118L56.3981 361.435C55.8162 362.014 54.8638 362.014 54.2819 361.435Z" fill="#2F495E"/>
<path d="M104.919 307.667L91.12 278.333L150.08 292.723L104.919 307.667Z" fill="#01C58E" stroke="#01C58E"/>
</g>
<defs>
<clipPath id="clip0_0_1">
<rect width="201" height="200" fill="white" transform="translate(0 217)"/>
</clipPath>
</defs>
</svg>
