<svg width="359" height="79" viewBox="0 0 359 79" fill="none" xmlns="http://www.w3.org/2000/svg">
<mask id="path-1-inside-1_0_1" fill="white">
<path d="M38.5244 0.891298C36.0169 1.42845 33.5598 2.25459 31.153 3.36971L33.3498 5.46989C35.3138 4.7198 37.4155 4.12327 39.655 3.6803C41.8944 3.23733 44.0927 2.99583 46.2497 2.95581C56.4057 2.76738 65.1444 6.15118 72.466 13.1072C79.7876 20.0632 83.3131 27.9232 83.5 38L76 36L85.5146 54.9479L94.5 36L86.8958 38C86.6939 27.1207 82.4337 18.5199 74.5172 10.9951C66.6006 3.47029 57.1599 -0.190398 46.1951 0.0130346C43.5887 0.0613915 41.0318 0.354146 38.5244 0.891298Z"/>
<path d="M8.73929 23.723L-1.55918e-05 42.0461L7.5591 40.0696C7.76095 50.9489 11.8201 60.151 19.7367 67.6758C27.6532 75.2006 37.0939 78.8613 48.0588 78.6579C50.6652 78.6095 53.2217 78.2945 55.7283 77.7127C58.2349 77.131 60.6924 76.3271 63.1008 75.3012L60.9041 73.201C58.9417 74.0403 56.8404 74.6591 54.6001 75.0575C52.3599 75.4559 50.1612 75.6751 48.0042 75.7151C37.8482 75.9035 29.1094 72.5197 21.7878 65.5637C14.4662 58.6077 10.712 50.0913 10.525 40.0145L18.5 42.0461L8.73929 23.723Z"/>
</mask>
<path d="M75.8958 38L75.8958 49.4361L97.8958 49.4361L97.8958 38L75.8958 38ZM72.5078 38.4136L72.9352 49.771L94.9196 48.9437L94.4922 37.5864L72.5078 38.4136ZM21.5231 39.8105L21.3221 28.9757L-0.674119 29.3838L-0.473107 40.2186L21.5231 39.8105ZM18.5572 39.8655L18.3562 29.0307L-3.64002 29.4388L-3.439 40.2736L18.5572 39.8655ZM31.153 3.36971L21.9044 -16.5918L-7.3734 -3.02674L15.9501 19.2716L31.153 3.36971ZM38.5244 0.891298L33.916 -20.6206L38.5244 0.891298ZM74.5172 10.9951L89.674 -4.95076L89.674 -4.95076L74.5172 10.9951ZM86.8958 38L64.8995 38.4081L65.4188 66.3969L92.4917 59.2764L86.8958 38ZM94.5 36L114.378 45.4266L134.643 2.69375L88.9041 14.7236L94.5 36ZM85.5146 54.9479L65.854 64.8203L86.08 105.1L105.393 64.3745L85.5146 54.9479ZM76 36L81.6686 14.7428L34.3752 2.13121L56.3395 45.8724L76 36ZM83.5 38L77.8314 59.2572L106.038 66.7789L105.496 37.5919L83.5 38ZM33.3498 5.46989L18.1468 21.3718L28.2025 30.9855L41.1989 26.0221L33.3498 5.46989ZM-1.55918e-05 42.0461L-19.857 32.5752L-40.2383 75.3071L5.56535 63.3305L-1.55918e-05 42.0461ZM8.73929 23.723L28.1562 13.3797L7.65459 -25.1065L-11.1177 14.2521L8.73929 23.723ZM18.5 42.0461L13.0691 63.3652L61.3329 75.66L37.9168 31.7027L18.5 42.0461ZM10.525 40.0145L15.9559 18.6954L-12.0065 11.5722L-11.4712 40.4226L10.525 40.0145ZM60.9041 73.201L76.1071 57.2991L65.6082 47.2617L52.2532 52.9733L60.9041 73.201ZM63.1008 75.3012L71.7227 95.5413L102.427 82.462L78.3038 59.3993L63.1008 75.3012ZM19.7367 67.6758L4.57985 83.6217L4.57986 83.6217L19.7367 67.6758ZM7.5591 40.0696L29.5553 39.6615L29.0368 11.714L1.99373 18.7851L7.5591 40.0696ZM40.4017 23.3312C41.3753 22.8801 42.2791 22.5861 43.1328 22.4032L33.916 -20.6206C29.7548 -19.7292 25.7444 -18.371 21.9044 -16.5918L40.4017 23.3312ZM43.1328 22.4032C44.2361 22.1669 45.3857 22.0318 46.6032 22.0092L45.787 -21.9832C41.7917 -21.9091 37.8275 -21.4586 33.916 -20.6206L43.1328 22.4032ZM46.6032 22.0092C51.8127 21.9126 55.6544 23.4184 59.3603 26.941L89.674 -4.95076C77.5468 -16.4779 62.5072 -22.2934 45.787 -21.9832L46.6032 22.0092ZM59.3603 26.941C63.5425 30.9162 64.8198 34.1104 64.8995 38.4081L108.892 37.5919C108.568 20.1309 101.325 6.12365 89.674 -4.95076L59.3603 26.941ZM92.4917 59.2764L100.096 57.2764L88.9041 14.7236L81.2998 16.7236L92.4917 59.2764ZM74.6219 26.5734L65.6364 45.5213L105.393 64.3745L114.378 45.4266L74.6219 26.5734ZM105.175 45.0755L95.6605 26.1276L56.3395 45.8724L65.854 64.8203L105.175 45.0755ZM70.3314 57.2572L77.8314 59.2572L89.1686 16.7428L81.6686 14.7428L70.3314 57.2572ZM105.496 37.5919C105.198 21.5163 99.1283 8.09227 87.6191 -2.84226L57.313 29.0566C60.4469 32.0341 61.4281 34.3302 61.5038 38.4081L105.496 37.5919ZM87.6191 -2.84226C76.0791 -13.806 61.74 -19.3354 45.8416 -19.0404L46.6578 24.952C51.0714 24.8701 54.2097 26.1083 57.313 29.0566L87.6191 -2.84226ZM45.8416 -19.0404C42.3153 -18.975 38.8243 -18.5817 35.386 -17.9015L43.924 25.2621C44.9645 25.0563 45.8701 24.9666 46.6578 24.952L45.8416 -19.0404ZM35.386 -17.9015C32.0293 -17.2376 28.721 -16.3122 25.5007 -15.0823L41.1989 26.0221C41.9066 25.7518 42.8018 25.4841 43.924 25.2621L35.386 -17.9015ZM48.5527 -10.432L46.356 -12.5322L15.9501 19.2716L18.1468 21.3718L48.5527 -10.432ZM19.857 51.517L28.5963 33.194L-11.1177 14.2521L-19.857 32.5752L19.857 51.517ZM-10.6776 34.0664L-0.916891 52.3894L37.9168 31.7027L28.1562 13.3797L-10.6776 34.0664ZM23.9308 20.7269L15.9559 18.6954L5.09414 61.3337L13.0691 63.3652L23.9308 20.7269ZM-11.4712 40.4226C-11.1748 56.4005 -4.94599 70.5106 6.63477 81.5132L36.9409 49.6143C33.8785 46.7048 32.5987 43.7821 32.5212 39.6064L-11.4712 40.4226ZM6.63477 81.5132C18.1747 92.4769 32.514 98.0063 48.4123 97.7113L47.5961 53.7189C43.1825 53.8008 40.0441 52.5625 36.9409 49.6143L6.63477 81.5132ZM48.4123 97.7113C51.7852 97.6487 55.136 97.3073 58.4519 96.7177L50.7483 53.3973C49.5837 53.6044 48.5372 53.7014 47.5961 53.7189L48.4123 97.7113ZM58.4519 96.7177C62.233 96.0453 65.9548 94.9685 69.555 93.4288L52.2532 52.9733C51.9287 53.112 51.4478 53.2729 50.7483 53.3973L58.4519 96.7177ZM45.7012 89.1029L47.8979 91.2031L78.3038 59.3993L76.1071 57.2991L45.7012 89.1029ZM54.479 55.061C53.2291 55.5935 51.9913 55.9953 50.7546 56.2823L60.7019 99.1431C64.4784 98.2667 68.1557 97.0608 71.7227 95.5413L54.479 55.061ZM50.7546 56.2823C49.7655 56.5119 48.7398 56.6414 47.6507 56.6616L48.4669 100.654C52.5905 100.578 56.6779 100.077 60.7019 99.1431L50.7546 56.2823ZM47.6507 56.6616C42.4412 56.7583 38.5994 55.2524 34.8935 51.7299L4.57986 83.6217C16.707 95.1488 31.7467 100.964 48.4669 100.654L47.6507 56.6616ZM34.8935 51.7299C31.2256 48.2435 29.6475 44.6301 29.5553 39.6615L-14.4371 40.4777C-14.1256 57.2677 -7.58531 72.0585 4.57985 83.6217L34.8935 51.7299ZM1.99373 18.7851L-5.56539 20.7617L5.56535 63.3305L13.1245 61.354L1.99373 18.7851Z" fill="#2F495E" mask="url(#path-1-inside-1_0_1)"/>
<path d="M19 54V49.9312C19 48.0799 19.8556 46.5729 21.5667 45.4104C23.2778 44.2479 25.5333 43.6667 28.3333 43.6667C28.8389 43.6667 29.325 43.6774 29.7917 43.699C30.2583 43.7205 30.7056 43.7743 31.1333 43.8604C30.5889 44.7646 30.1806 45.7118 29.9083 46.7021C29.6361 47.6924 29.5 48.7257 29.5 49.8021V54H19ZM33 54V49.8021C33 48.4243 33.3403 47.1649 34.0208 46.024C34.7014 44.883 35.6639 43.8819 36.9083 43.0208C38.1528 42.1597 39.6403 41.5139 41.3708 41.0833C43.1014 40.6528 44.9778 40.4375 47 40.4375C49.0611 40.4375 50.9569 40.6528 52.6875 41.0833C54.4181 41.5139 55.9056 42.1597 57.15 43.0208C58.3944 43.8819 59.3472 44.883 60.0083 46.024C60.6694 47.1649 61 48.4243 61 49.8021V54H33ZM64.5 54V49.8021C64.5 48.6826 64.3736 47.6278 64.1208 46.6375C63.8681 45.6472 63.4889 44.7215 62.9833 43.8604C63.4111 43.7743 63.8486 43.7205 64.2958 43.699C64.7431 43.6774 65.2 43.6667 65.6667 43.6667C68.4667 43.6667 70.7222 44.2372 72.4333 45.3781C74.1444 46.5191 75 48.0368 75 49.9312V54H64.5ZM37.9583 48.8333H56.1C55.7111 47.9722 54.6319 47.2187 52.8625 46.5729C51.0931 45.9271 49.1389 45.6042 47 45.6042C44.8611 45.6042 42.9069 45.9271 41.1375 46.5729C39.3681 47.2187 38.3083 47.9722 37.9583 48.8333ZM28.3333 41.0833C27.05 41.0833 25.9514 40.5774 25.0375 39.5656C24.1236 38.5538 23.6667 37.3375 23.6667 35.9167C23.6667 34.4528 24.1236 33.2257 25.0375 32.2354C25.9514 31.2451 27.05 30.75 28.3333 30.75C29.6556 30.75 30.7639 31.2451 31.6583 32.2354C32.5528 33.2257 33 34.4528 33 35.9167C33 37.3375 32.5528 38.5538 31.6583 39.5656C30.7639 40.5774 29.6556 41.0833 28.3333 41.0833ZM65.6667 41.0833C64.3833 41.0833 63.2847 40.5774 62.3708 39.5656C61.4569 38.5538 61 37.3375 61 35.9167C61 34.4528 61.4569 33.2257 62.3708 32.2354C63.2847 31.2451 64.3833 30.75 65.6667 30.75C66.9889 30.75 68.0972 31.2451 68.9917 32.2354C69.8861 33.2257 70.3333 34.4528 70.3333 35.9167C70.3333 37.3375 69.8861 38.5538 68.9917 39.5656C68.0972 40.5774 66.9889 41.0833 65.6667 41.0833ZM47 38.5C45.0556 38.5 43.4028 37.7465 42.0417 36.2396C40.6806 34.7326 40 32.9028 40 30.75C40 28.5542 40.6806 26.7135 42.0417 25.2281C43.4028 23.7427 45.0556 23 47 23C48.9833 23 50.6458 23.7427 51.9875 25.2281C53.3292 26.7135 54 28.5542 54 30.75C54 32.9028 53.3292 34.7326 51.9875 36.2396C50.6458 37.7465 48.9833 38.5 47 38.5ZM47 33.3333C47.6611 33.3333 48.2153 33.0858 48.6625 32.5906C49.1097 32.0955 49.3333 31.4819 49.3333 30.75C49.3333 30.0181 49.1097 29.4045 48.6625 28.9094C48.2153 28.4142 47.6611 28.1667 47 28.1667C46.3389 28.1667 45.7847 28.4142 45.3375 28.9094C44.8903 29.4045 44.6667 30.0181 44.6667 30.75C44.6667 31.4819 44.8903 32.0955 45.3375 32.5906C45.7847 33.0858 46.3389 33.3333 47 33.3333Z" fill="#01C58E"/>
<path d="M121.96 50.477C118.992 50.477 116.413 50.053 114.222 49.205C112.067 48.357 110.424 47.2263 109.293 45.813C108.162 44.3997 107.597 42.8803 107.597 41.255C107.597 39.9123 107.95 38.8877 108.657 38.181C109.364 37.439 110.441 37.068 111.89 37.068C111.89 40.0713 112.791 42.368 114.593 43.958C116.395 45.5127 118.921 46.29 122.172 46.29C125.281 46.29 127.666 45.7777 129.327 44.753C130.988 43.693 131.818 42.1383 131.818 40.089C131.818 38.8523 131.5 37.8453 130.864 37.068C130.263 36.2553 129.221 35.5663 127.737 35.001C126.288 34.4003 124.186 33.7997 121.43 33.199C118.179 32.4923 115.6 31.6797 113.692 30.761C111.784 29.807 110.388 28.6587 109.505 27.316C108.622 25.9733 108.18 24.3127 108.18 22.334C108.18 20.3553 108.728 18.624 109.823 17.14C110.954 15.6207 112.544 14.4547 114.593 13.642C116.642 12.8293 119.027 12.423 121.748 12.423C124.327 12.423 126.624 12.794 128.638 13.536C130.687 14.2427 132.277 15.2673 133.408 16.61C134.574 17.9173 135.157 19.4013 135.157 21.062C135.157 22.0867 134.821 22.8993 134.15 23.5C133.514 24.0653 132.507 24.348 131.129 24.348C130.74 21.6627 129.786 19.7017 128.267 18.465C126.783 17.2283 124.61 16.61 121.748 16.61C118.992 16.61 116.872 17.1047 115.388 18.094C113.904 19.048 113.162 20.4083 113.162 22.175C113.162 23.4117 113.427 24.4363 113.957 25.249C114.522 26.0263 115.459 26.6977 116.766 27.263C118.109 27.8283 119.981 28.376 122.384 28.906C125.988 29.6833 128.815 30.549 130.864 31.503C132.949 32.457 134.45 33.623 135.369 35.001C136.288 36.379 136.747 38.075 136.747 40.089C136.747 43.3043 135.404 45.8483 132.719 47.721C130.034 49.5583 126.447 50.477 121.96 50.477ZM142.818 16.345C142.818 15.073 143.207 14.1013 143.984 13.43C144.762 12.7587 145.91 12.423 147.429 12.423V26.362C146.935 26.9273 146.546 27.422 146.263 27.846L146.475 28.058C147.571 26.574 148.949 25.3727 150.609 24.454C152.27 23.5 154.072 23.023 156.015 23.023C158.877 23.023 161.139 23.871 162.799 25.567C164.46 27.263 165.29 29.4537 165.29 32.139V47.085C165.29 48.251 164.902 49.1167 164.124 49.682C163.382 50.212 162.234 50.477 160.679 50.477V32.616C160.679 30.92 160.202 29.5773 159.248 28.588C158.294 27.5987 156.846 27.104 154.902 27.104C153.595 27.104 152.358 27.3867 151.192 27.952C150.062 28.482 149.143 29.224 148.436 30.178C147.765 31.0967 147.429 32.1037 147.429 33.199V47.085C147.429 48.251 147.041 49.1167 146.263 49.682C145.521 50.212 144.373 50.477 142.818 50.477V16.345ZM175.663 19.048C174.674 19.048 173.843 18.73 173.172 18.094C172.501 17.458 172.165 16.663 172.165 15.709C172.165 14.755 172.501 13.9777 173.172 13.377C173.843 12.741 174.674 12.423 175.663 12.423C176.617 12.423 177.43 12.741 178.101 13.377C178.772 13.9777 179.108 14.755 179.108 15.709C179.108 16.663 178.772 17.458 178.101 18.094C177.43 18.73 176.617 19.048 175.663 19.048ZM173.331 26.415C173.331 25.249 173.702 24.401 174.444 23.871C175.221 23.3057 176.387 23.023 177.942 23.023V47.085C177.942 48.251 177.553 49.1167 176.776 49.682C176.034 50.212 174.886 50.477 173.331 50.477V26.415ZM189.098 27.21H184.699C184.699 24.7367 185.617 23.5 187.455 23.5H189.098V20.267C189.098 17.9703 189.751 16.0977 191.059 14.649C192.366 13.165 194.327 12.423 196.942 12.423C198.426 12.423 199.574 12.7587 200.387 13.43C201.199 14.066 201.606 14.808 201.606 15.656C201.606 16.398 201.376 16.9987 200.917 17.458C199.821 16.822 198.638 16.504 197.366 16.504C196.058 16.504 195.122 16.822 194.557 17.458C193.991 18.094 193.709 19.101 193.709 20.479V23.5H200.334C200.334 24.772 200.051 25.7083 199.486 26.309C198.956 26.9097 198.125 27.21 196.995 27.21H193.709V47.085C193.709 48.251 193.32 49.1167 192.543 49.682C191.801 50.212 190.652 50.477 189.098 50.477V27.21ZM215.32 50.477C212.811 50.477 210.938 49.7703 209.702 48.357C208.465 46.9083 207.847 45.018 207.847 42.686V27.21H202.918C202.918 26.0087 203.183 25.09 203.713 24.454C204.243 23.818 204.967 23.5 205.886 23.5H207.9V18.465C207.9 17.299 208.271 16.451 209.013 15.921C209.79 15.3557 210.938 15.073 212.458 15.073V23.5H219.507C219.507 25.9733 218.394 27.21 216.168 27.21H212.511V42.527C212.511 43.9403 212.758 44.9473 213.253 45.548C213.783 46.1133 214.719 46.396 216.062 46.396C217.298 46.396 218.464 46.078 219.56 45.442C220.019 45.9013 220.249 46.5197 220.249 47.297C220.249 48.145 219.807 48.887 218.924 49.523C218.04 50.159 216.839 50.477 215.32 50.477ZM225.838 15.232C225.838 14.5607 226.085 14.013 226.58 13.589C227.075 13.1297 227.675 12.9 228.382 12.9H252.02C252.02 14.384 251.72 15.4793 251.119 16.186C250.518 16.8927 249.6 17.246 248.363 17.246H230.82V28.853H245.66C245.66 30.337 245.36 31.4323 244.759 32.139C244.158 32.8457 243.24 33.199 242.003 33.199H230.82V46.449C230.82 47.827 230.414 48.8517 229.601 49.523C228.788 50.159 227.534 50.477 225.838 50.477V15.232ZM259.738 50.477C256.7 50.477 254.244 49.6643 252.371 48.039C250.534 46.4137 249.615 44.276 249.615 41.626C249.615 38.9407 250.587 36.7853 252.53 35.16C254.474 33.4993 257.035 32.669 260.215 32.669C263.607 32.669 266.399 33.8703 268.589 36.273L268.801 36.061C268.413 35.637 267.971 35.1953 267.476 34.736V32.51C267.476 30.708 266.911 29.3123 265.78 28.323C264.65 27.3337 263.042 26.839 260.957 26.839C257.247 26.839 254.597 28.3053 253.007 31.238C252.442 30.9553 251.965 30.5843 251.576 30.125C251.223 29.6303 251.046 29.1357 251.046 28.641C251.046 27.687 251.523 26.786 252.477 25.938C253.431 25.0547 254.686 24.348 256.24 23.818C257.83 23.288 259.491 23.023 261.222 23.023C264.579 23.023 267.211 23.8533 269.119 25.514C271.063 27.1747 272.034 29.4713 272.034 32.404V46.926C272.034 48.1627 271.681 49.0637 270.974 49.629C270.268 50.1943 269.155 50.477 267.635 50.477V47.986C268.377 47.2087 268.784 46.7493 268.854 46.608L268.642 46.396C266.346 49.1167 263.378 50.477 259.738 50.477ZM260.533 46.82C262.724 46.82 264.438 46.3607 265.674 45.442C266.946 44.5233 267.582 43.2513 267.582 41.626C267.582 40.0007 266.964 38.711 265.727 37.757C264.491 36.803 262.795 36.326 260.639 36.326C258.625 36.326 257.035 36.803 255.869 37.757C254.739 38.6757 254.173 39.9653 254.173 41.626C254.173 43.2867 254.721 44.5763 255.816 45.495C256.947 46.3783 258.519 46.82 260.533 46.82ZM289.024 50.477C286.869 50.477 284.943 50.0883 283.247 49.311C281.551 48.5337 280.226 47.4383 279.272 46.025C278.353 44.6117 277.894 43.004 277.894 41.202V32.616C277.894 30.7433 278.353 29.0827 279.272 27.634C280.226 26.1853 281.533 25.0547 283.194 24.242C284.855 23.4293 286.763 23.023 288.918 23.023C290.932 23.023 292.716 23.3233 294.271 23.924C295.861 24.4893 297.098 25.302 297.981 26.362C298.864 27.422 299.306 28.6233 299.306 29.966C299.306 30.8493 298.953 31.5737 298.246 32.139C297.575 32.669 296.691 32.8987 295.596 32.828C295.596 31.132 294.978 29.754 293.741 28.694C292.54 27.634 290.967 27.104 289.024 27.104C287.081 27.104 285.508 27.634 284.307 28.694C283.106 29.7187 282.505 31.0613 282.505 32.722V40.99C282.505 42.58 283.123 43.8873 284.36 44.912C285.597 45.9013 287.187 46.396 289.13 46.396C291.073 46.396 292.646 45.866 293.847 44.806C295.084 43.746 295.702 42.3857 295.702 40.725C296.833 40.6543 297.734 40.884 298.405 41.414C299.112 41.9087 299.465 42.6153 299.465 43.534C299.465 44.8767 299.023 46.078 298.14 47.138C297.257 48.198 296.02 49.0283 294.43 49.629C292.84 50.1943 291.038 50.477 289.024 50.477ZM309.043 19.048C308.054 19.048 307.223 18.73 306.552 18.094C305.881 17.458 305.545 16.663 305.545 15.709C305.545 14.755 305.881 13.9777 306.552 13.377C307.223 12.741 308.054 12.423 309.043 12.423C309.997 12.423 310.81 12.741 311.481 13.377C312.152 13.9777 312.488 14.755 312.488 15.709C312.488 16.663 312.152 17.458 311.481 18.094C310.81 18.73 309.997 19.048 309.043 19.048ZM306.711 26.415C306.711 25.249 307.082 24.401 307.824 23.871C308.601 23.3057 309.767 23.023 311.322 23.023V47.085C311.322 48.251 310.933 49.1167 310.156 49.682C309.414 50.212 308.266 50.477 306.711 50.477V26.415ZM327.619 50.477C325.039 50.477 323.114 49.7703 321.842 48.357C320.57 46.9083 319.934 45.018 319.934 42.686V15.815C319.934 14.649 320.305 13.801 321.047 13.271C321.824 12.7057 322.99 12.423 324.545 12.423V42.527C324.545 43.905 324.827 44.8943 325.393 45.495C325.958 46.0957 326.894 46.396 328.202 46.396C329.509 46.396 330.71 46.078 331.806 45.442C332.265 45.972 332.495 46.5903 332.495 47.297C332.495 48.145 332.053 48.887 331.17 49.523C330.286 50.159 329.103 50.477 327.619 50.477ZM347.356 50.477C345.201 50.477 343.275 50.0707 341.579 49.258C339.883 48.41 338.558 47.2617 337.604 45.813C336.65 44.329 336.173 42.6683 336.173 40.831V32.987C336.173 31.1143 336.668 29.4183 337.657 27.899C338.682 26.3797 340.042 25.196 341.738 24.348C343.469 23.4647 345.342 23.023 347.356 23.023C349.37 23.023 351.207 23.447 352.868 24.295C354.564 25.143 355.889 26.309 356.843 27.793C357.832 29.277 358.327 30.9553 358.327 32.828V36.22C358.327 36.7853 358.115 37.2623 357.691 37.651C357.267 38.0397 356.755 38.234 356.154 38.234H340.678V40.619C340.678 42.421 341.243 43.8697 342.374 44.965C343.54 46.0603 345.201 46.608 347.356 46.608C349.511 46.608 351.154 46.131 352.285 45.177C353.416 44.223 353.981 42.9333 353.981 41.308C355.041 41.2373 355.924 41.4493 356.631 41.944C357.373 42.4033 357.744 43.0923 357.744 44.011C357.744 45.1417 357.249 46.2017 356.26 47.191C355.306 48.1803 354.034 48.9753 352.444 49.576C350.854 50.1767 349.158 50.477 347.356 50.477ZM354.034 34.63V32.828C354.034 31.0613 353.416 29.6303 352.179 28.535C350.978 27.4043 349.37 26.839 347.356 26.839C345.342 26.839 343.717 27.4043 342.48 28.535C341.279 29.6303 340.678 31.0613 340.678 32.828V34.63H354.034Z" fill="#108774"/>
<path d="M110.05 60.16C110.05 59.97 110.12 59.815 110.26 59.695C110.4 59.565 110.57 59.5 110.77 59.5H117.415C117.415 59.92 117.33 60.23 117.16 60.43C116.99 60.63 116.725 60.73 116.365 60.73H111.46V64.09H115.66C115.66 64.51 115.575 64.82 115.405 65.02C115.235 65.22 114.975 65.32 114.625 65.32H111.46V68.77H116.68C117.03 68.77 117.29 68.87 117.46 69.07C117.63 69.27 117.715 69.58 117.715 70H110.77C110.57 70 110.4 69.94 110.26 69.82C110.12 69.69 110.05 69.53 110.05 69.34V60.16ZM123.056 70.135C122.196 70.135 121.501 69.905 120.971 69.445C120.451 68.985 120.191 68.38 120.191 67.63C120.191 66.87 120.466 66.26 121.016 65.8C121.566 65.33 122.291 65.095 123.191 65.095C124.151 65.095 124.941 65.435 125.561 66.115L125.621 66.055C125.511 65.935 125.386 65.81 125.246 65.68V65.05C125.246 64.54 125.086 64.145 124.766 63.865C124.446 63.585 123.991 63.445 123.401 63.445C122.351 63.445 121.601 63.86 121.151 64.69C120.991 64.61 120.856 64.505 120.746 64.375C120.646 64.235 120.596 64.095 120.596 63.955C120.596 63.685 120.731 63.43 121.001 63.19C121.271 62.94 121.626 62.74 122.066 62.59C122.516 62.44 122.986 62.365 123.476 62.365C124.426 62.365 125.171 62.6 125.711 63.07C126.261 63.54 126.536 64.19 126.536 65.02V69.13C126.536 69.48 126.436 69.735 126.236 69.895C126.036 70.055 125.721 70.135 125.291 70.135V69.43C125.501 69.21 125.616 69.08 125.636 69.04L125.576 68.98C124.926 69.75 124.086 70.135 123.056 70.135ZM123.281 69.1C123.901 69.1 124.386 68.97 124.736 68.71C125.096 68.45 125.276 68.09 125.276 67.63C125.276 67.17 125.101 66.805 124.751 66.535C124.401 66.265 123.921 66.13 123.311 66.13C122.741 66.13 122.291 66.265 121.961 66.535C121.641 66.795 121.481 67.16 121.481 67.63C121.481 68.1 121.636 68.465 121.946 68.725C122.266 68.975 122.711 69.1 123.281 69.1ZM132.859 70.135C132.349 70.135 131.869 70.06 131.419 69.91C130.969 69.75 130.604 69.525 130.324 69.235C130.054 68.945 129.919 68.605 129.919 68.215C129.919 67.735 130.209 67.475 130.789 67.435C130.889 67.995 131.124 68.41 131.494 68.68C131.874 68.94 132.354 69.07 132.934 69.07C133.514 69.07 133.964 68.985 134.284 68.815C134.604 68.645 134.764 68.385 134.764 68.035C134.764 67.785 134.699 67.585 134.569 67.435C134.439 67.275 134.229 67.14 133.939 67.03C133.659 66.91 133.254 66.795 132.724 66.685C132.064 66.535 131.539 66.375 131.149 66.205C130.759 66.035 130.459 65.81 130.249 65.53C130.049 65.25 129.949 64.88 129.949 64.42C129.949 64.03 130.069 63.68 130.309 63.37C130.549 63.05 130.879 62.805 131.299 62.635C131.729 62.455 132.214 62.365 132.754 62.365C133.254 62.365 133.724 62.435 134.164 62.575C134.614 62.715 134.974 62.915 135.244 63.175C135.524 63.435 135.664 63.735 135.664 64.075C135.664 64.305 135.574 64.49 135.394 64.63C135.214 64.76 134.964 64.835 134.644 64.855C134.614 64.415 134.434 64.07 134.104 63.82C133.784 63.56 133.334 63.43 132.754 63.43C132.274 63.43 131.894 63.52 131.614 63.7C131.334 63.88 131.194 64.12 131.194 64.42C131.194 64.74 131.324 64.98 131.584 65.14C131.854 65.29 132.309 65.435 132.949 65.575C133.999 65.785 134.769 66.075 135.259 66.445C135.759 66.805 136.009 67.32 136.009 67.99C136.009 68.67 135.734 69.2 135.184 69.58C134.634 69.95 133.859 70.135 132.859 70.135ZM139.593 73.12C138.973 73.12 138.648 72.76 138.618 72.04C138.918 72.08 139.133 72.1 139.263 72.1C139.703 72.1 140.053 71.97 140.313 71.71C140.583 71.45 140.858 71 141.138 70.36L141.438 69.685L138.483 62.47C138.553 62.44 138.643 62.415 138.753 62.395C138.873 62.375 138.973 62.365 139.053 62.365C139.263 62.375 139.453 62.435 139.623 62.545C139.793 62.645 139.913 62.78 139.983 62.95L141.993 68.08L141.783 68.68L141.873 68.725L144.153 62.95C144.223 62.77 144.338 62.63 144.498 62.53C144.668 62.42 144.858 62.365 145.068 62.365C145.158 62.365 145.258 62.375 145.368 62.395C145.488 62.415 145.578 62.44 145.638 62.47L142.263 70.735C141.933 71.535 141.563 72.13 141.153 72.52C140.743 72.92 140.223 73.12 139.593 73.12ZM158.586 70.135C157.746 70.135 157.016 70.015 156.396 69.775C155.786 69.535 155.321 69.215 155.001 68.815C154.681 68.415 154.521 67.985 154.521 67.525C154.521 67.145 154.621 66.855 154.821 66.655C155.021 66.445 155.326 66.34 155.736 66.34C155.736 67.19 155.991 67.84 156.501 68.29C157.011 68.73 157.726 68.95 158.646 68.95C159.526 68.95 160.201 68.805 160.671 68.515C161.141 68.215 161.376 67.775 161.376 67.195C161.376 66.845 161.286 66.56 161.106 66.34C160.936 66.11 160.641 65.915 160.221 65.755C159.811 65.585 159.216 65.415 158.436 65.245C157.516 65.045 156.786 64.815 156.246 64.555C155.706 64.285 155.311 63.96 155.061 63.58C154.811 63.2 154.686 62.73 154.686 62.17C154.686 61.61 154.841 61.12 155.151 60.7C155.471 60.27 155.921 59.94 156.501 59.71C157.081 59.48 157.756 59.365 158.526 59.365C159.256 59.365 159.906 59.47 160.476 59.68C161.056 59.88 161.506 60.17 161.826 60.55C162.156 60.92 162.321 61.34 162.321 61.81C162.321 62.1 162.226 62.33 162.036 62.5C161.856 62.66 161.571 62.74 161.181 62.74C161.071 61.98 160.801 61.425 160.371 61.075C159.951 60.725 159.336 60.55 158.526 60.55C157.746 60.55 157.146 60.69 156.726 60.97C156.306 61.24 156.096 61.625 156.096 62.125C156.096 62.475 156.171 62.765 156.321 62.995C156.481 63.215 156.746 63.405 157.116 63.565C157.496 63.725 158.026 63.88 158.706 64.03C159.726 64.25 160.526 64.495 161.106 64.765C161.696 65.035 162.121 65.365 162.381 65.755C162.641 66.145 162.771 66.625 162.771 67.195C162.771 68.105 162.391 68.825 161.631 69.355C160.871 69.875 159.856 70.135 158.586 70.135ZM169.289 70.135C168.679 70.135 168.134 70.025 167.654 69.805C167.174 69.585 166.799 69.275 166.529 68.875C166.269 68.475 166.139 68.02 166.139 67.51V65.08C166.139 64.55 166.269 64.08 166.529 63.67C166.799 63.26 167.169 62.94 167.639 62.71C168.109 62.48 168.649 62.365 169.259 62.365C169.829 62.365 170.334 62.45 170.774 62.62C171.224 62.78 171.574 63.01 171.824 63.31C172.074 63.61 172.199 63.95 172.199 64.33C172.199 64.58 172.099 64.785 171.899 64.945C171.709 65.095 171.459 65.16 171.149 65.14C171.149 64.66 170.974 64.27 170.624 63.97C170.284 63.67 169.839 63.52 169.289 63.52C168.739 63.52 168.294 63.67 167.954 63.97C167.614 64.26 167.444 64.64 167.444 65.11V67.45C167.444 67.9 167.619 68.27 167.969 68.56C168.319 68.84 168.769 68.98 169.319 68.98C169.869 68.98 170.314 68.83 170.654 68.53C171.004 68.23 171.179 67.845 171.179 67.375C171.499 67.355 171.754 67.42 171.944 67.57C172.144 67.71 172.244 67.91 172.244 68.17C172.244 68.55 172.119 68.89 171.869 69.19C171.619 69.49 171.269 69.725 170.819 69.895C170.369 70.055 169.859 70.135 169.289 70.135ZM175.765 60.475C175.765 60.115 175.875 59.84 176.095 59.65C176.315 59.46 176.64 59.365 177.07 59.365V63.31C176.93 63.47 176.82 63.61 176.74 63.73L176.8 63.79C177.11 63.37 177.5 63.03 177.97 62.77C178.44 62.5 178.95 62.365 179.5 62.365C180.31 62.365 180.95 62.605 181.42 63.085C181.89 63.565 182.125 64.185 182.125 64.945V69.175C182.125 69.505 182.015 69.75 181.795 69.91C181.585 70.06 181.26 70.135 180.82 70.135V65.08C180.82 64.6 180.685 64.22 180.415 63.94C180.145 63.66 179.735 63.52 179.185 63.52C178.815 63.52 178.465 63.6 178.135 63.76C177.815 63.91 177.555 64.12 177.355 64.39C177.165 64.65 177.07 64.935 177.07 65.245V69.175C177.07 69.505 176.96 69.75 176.74 69.91C176.53 70.06 176.205 70.135 175.765 70.135V60.475ZM188.886 70.135C188.276 70.135 187.731 70.02 187.251 69.79C186.771 69.55 186.396 69.225 186.126 68.815C185.856 68.395 185.721 67.925 185.721 67.405V65.185C185.721 64.655 185.861 64.175 186.141 63.745C186.431 63.315 186.816 62.98 187.296 62.74C187.786 62.49 188.316 62.365 188.886 62.365C189.456 62.365 189.976 62.485 190.446 62.725C190.926 62.965 191.301 63.295 191.571 63.715C191.851 64.135 191.991 64.61 191.991 65.14V66.1C191.991 66.26 191.931 66.395 191.811 66.505C191.691 66.615 191.546 66.67 191.376 66.67H186.996V67.345C186.996 67.855 187.156 68.265 187.476 68.575C187.806 68.885 188.276 69.04 188.886 69.04C189.496 69.04 189.961 68.905 190.281 68.635C190.601 68.365 190.761 68 190.761 67.54C191.061 67.52 191.311 67.58 191.511 67.72C191.721 67.85 191.826 68.045 191.826 68.305C191.826 68.625 191.686 68.925 191.406 69.205C191.136 69.485 190.776 69.71 190.326 69.88C189.876 70.05 189.396 70.135 188.886 70.135ZM190.776 65.65V65.14C190.776 64.64 190.601 64.235 190.251 63.925C189.911 63.605 189.456 63.445 188.886 63.445C188.316 63.445 187.856 63.605 187.506 63.925C187.166 64.235 186.996 64.64 186.996 65.14V65.65H190.776ZM198.267 70.135C197.407 70.135 196.707 69.9 196.167 69.43C195.637 68.95 195.372 68.315 195.372 67.525V64.96C195.372 64.45 195.497 64 195.747 63.61C195.997 63.21 196.342 62.905 196.782 62.695C197.232 62.475 197.747 62.365 198.327 62.365C198.797 62.365 199.232 62.465 199.632 62.665C200.032 62.855 200.382 63.11 200.682 63.43L200.727 63.355C200.657 63.255 200.552 63.145 200.412 63.025V60.385C200.412 60.055 200.522 59.805 200.742 59.635C200.962 59.455 201.292 59.365 201.732 59.365V69.07C201.732 69.4 201.632 69.66 201.432 69.85C201.242 70.04 200.932 70.135 200.502 70.135V69.295C200.642 69.115 200.737 68.985 200.787 68.905L200.742 68.845C200.422 69.245 200.067 69.56 199.677 69.79C199.287 70.02 198.817 70.135 198.267 70.135ZM198.552 68.98C199.082 68.98 199.527 68.845 199.887 68.575C200.247 68.295 200.427 67.95 200.427 67.54V64.945C200.427 64.545 200.257 64.21 199.917 63.94C199.577 63.66 199.117 63.52 198.537 63.52C197.947 63.52 197.487 63.655 197.157 63.925C196.837 64.185 196.677 64.55 196.677 65.02V67.465C196.677 67.955 196.837 68.33 197.157 68.59C197.487 68.85 197.952 68.98 198.552 68.98ZM211.838 69.025C211.838 69.765 211.418 70.135 210.578 70.135V69.175C210.668 69.085 210.773 68.95 210.893 68.77L210.833 68.71C210.533 69.14 210.153 69.485 209.693 69.745C209.243 70.005 208.748 70.135 208.208 70.135C207.668 70.135 207.188 70.02 206.768 69.79C206.358 69.56 206.038 69.24 205.808 68.83C205.588 68.42 205.478 67.96 205.478 67.45V63.325C205.478 62.995 205.588 62.755 205.808 62.605C206.028 62.445 206.358 62.365 206.798 62.365V67.39C206.798 67.87 206.938 68.255 207.218 68.545C207.508 68.835 207.933 68.98 208.493 68.98C208.863 68.98 209.203 68.905 209.513 68.755C209.823 68.595 210.068 68.385 210.248 68.125C210.438 67.855 210.533 67.565 210.533 67.255V63.325C210.533 62.995 210.638 62.755 210.848 62.605C211.068 62.445 211.398 62.365 211.838 62.365V69.025ZM217.909 70.135C217.179 70.135 216.634 69.935 216.274 69.535C215.914 69.125 215.734 68.59 215.734 67.93V60.325C215.734 59.995 215.839 59.755 216.049 59.605C216.269 59.445 216.599 59.365 217.039 59.365V67.885C217.039 68.275 217.119 68.555 217.279 68.725C217.439 68.895 217.704 68.98 218.074 68.98C218.444 68.98 218.784 68.89 219.094 68.71C219.224 68.86 219.289 69.035 219.289 69.235C219.289 69.475 219.164 69.685 218.914 69.865C218.664 70.045 218.329 70.135 217.909 70.135ZM223.651 61.24C223.371 61.24 223.136 61.15 222.946 60.97C222.756 60.79 222.661 60.565 222.661 60.295C222.661 60.025 222.756 59.805 222.946 59.635C223.136 59.455 223.371 59.365 223.651 59.365C223.921 59.365 224.151 59.455 224.341 59.635C224.531 59.805 224.626 60.025 224.626 60.295C224.626 60.565 224.531 60.79 224.341 60.97C224.151 61.15 223.921 61.24 223.651 61.24ZM222.991 63.325C222.991 62.995 223.096 62.755 223.306 62.605C223.526 62.445 223.856 62.365 224.296 62.365V69.175C224.296 69.505 224.186 69.75 223.966 69.91C223.756 70.06 223.431 70.135 222.991 70.135V63.325ZM228.533 63.475C228.533 62.735 228.953 62.365 229.793 62.365V63.325C229.703 63.415 229.598 63.55 229.478 63.73L229.538 63.79C229.838 63.37 230.228 63.03 230.708 62.77C231.188 62.5 231.708 62.365 232.268 62.365C233.078 62.365 233.718 62.605 234.188 63.085C234.658 63.565 234.893 64.185 234.893 64.945V69.175C234.893 69.505 234.783 69.75 234.563 69.91C234.353 70.06 234.028 70.135 233.588 70.135V65.08C233.588 64.6 233.453 64.22 233.183 63.94C232.913 63.66 232.503 63.52 231.953 63.52C231.583 63.52 231.233 63.6 230.903 63.76C230.583 63.91 230.323 64.12 230.123 64.39C229.933 64.65 229.838 64.935 229.838 65.245V69.175C229.838 69.505 229.728 69.75 229.508 69.91C229.298 70.06 228.973 70.135 228.533 70.135V63.475ZM241.624 73.135C241.104 73.135 240.619 73.05 240.169 72.88C239.719 72.71 239.364 72.48 239.104 72.19C238.844 71.91 238.714 71.605 238.714 71.275C238.714 71.015 238.799 70.825 238.969 70.705C239.149 70.585 239.389 70.525 239.689 70.525C239.709 70.995 239.889 71.365 240.229 71.635C240.579 71.915 241.044 72.055 241.624 72.055C242.904 72.055 243.544 71.435 243.544 70.195V69.325C243.684 69.205 243.789 69.095 243.859 68.995L243.814 68.92C243.524 69.23 243.159 69.485 242.719 69.685C242.289 69.885 241.854 69.985 241.414 69.985C240.554 69.985 239.849 69.75 239.299 69.28C238.759 68.8 238.489 68.17 238.489 67.39V64.975C238.489 64.465 238.614 64.015 238.864 63.625C239.124 63.225 239.474 62.915 239.914 62.695C240.364 62.475 240.859 62.365 241.399 62.365C242.379 62.365 243.199 62.795 243.859 63.655L243.919 63.595L243.619 63.22C243.619 62.94 243.714 62.73 243.904 62.59C244.104 62.44 244.424 62.365 244.864 62.365V70.06C244.864 70.66 244.724 71.19 244.444 71.65C244.174 72.12 243.794 72.485 243.304 72.745C242.814 73.005 242.254 73.135 241.624 73.135ZM241.654 68.845C242.184 68.845 242.634 68.705 243.004 68.425C243.374 68.135 243.559 67.795 243.559 67.405V64.96C243.559 64.55 243.374 64.205 243.004 63.925C242.644 63.645 242.204 63.505 241.684 63.505C241.084 63.505 240.619 63.64 240.289 63.91C239.959 64.17 239.794 64.545 239.794 65.035V67.33C239.794 67.8 239.954 68.17 240.274 68.44C240.604 68.71 241.064 68.845 241.654 68.845ZM248.594 72.1C248.954 71.77 249.224 71.43 249.404 71.08C249.584 70.73 249.674 70.39 249.674 70.06C249.574 70.11 249.459 70.135 249.329 70.135C249.049 70.135 248.819 70.045 248.639 69.865C248.469 69.675 248.384 69.435 248.384 69.145C248.384 68.825 248.484 68.565 248.684 68.365C248.894 68.165 249.154 68.065 249.464 68.065C249.794 68.065 250.059 68.175 250.259 68.395C250.469 68.605 250.574 68.87 250.574 69.19C250.574 69.87 250.469 70.435 250.259 70.885C250.049 71.335 249.744 71.73 249.344 72.07C249.244 72.15 249.104 72.19 248.924 72.19C248.784 72.19 248.674 72.16 248.594 72.1ZM259.771 60.535C259.771 60.155 259.891 59.865 260.131 59.665C260.371 59.465 260.721 59.365 261.181 59.365V64.09H266.506V60.535C266.506 60.155 266.626 59.865 266.866 59.665C267.106 59.465 267.456 59.365 267.916 59.365V68.965C267.916 69.345 267.796 69.635 267.556 69.835C267.316 70.035 266.966 70.135 266.506 70.135V65.335H261.181V68.965C261.181 69.345 261.061 69.635 260.821 69.835C260.581 70.035 260.231 70.135 259.771 70.135V60.535ZM274.3 70.135C273.44 70.135 272.745 69.905 272.215 69.445C271.695 68.985 271.435 68.38 271.435 67.63C271.435 66.87 271.71 66.26 272.26 65.8C272.81 65.33 273.535 65.095 274.435 65.095C275.395 65.095 276.185 65.435 276.805 66.115L276.865 66.055C276.755 65.935 276.63 65.81 276.49 65.68V65.05C276.49 64.54 276.33 64.145 276.01 63.865C275.69 63.585 275.235 63.445 274.645 63.445C273.595 63.445 272.845 63.86 272.395 64.69C272.235 64.61 272.1 64.505 271.99 64.375C271.89 64.235 271.84 64.095 271.84 63.955C271.84 63.685 271.975 63.43 272.245 63.19C272.515 62.94 272.87 62.74 273.31 62.59C273.76 62.44 274.23 62.365 274.72 62.365C275.67 62.365 276.415 62.6 276.955 63.07C277.505 63.54 277.78 64.19 277.78 65.02V69.13C277.78 69.48 277.68 69.735 277.48 69.895C277.28 70.055 276.965 70.135 276.535 70.135V69.43C276.745 69.21 276.86 69.08 276.88 69.04L276.82 68.98C276.17 69.75 275.33 70.135 274.3 70.135ZM274.525 69.1C275.145 69.1 275.63 68.97 275.98 68.71C276.34 68.45 276.52 68.09 276.52 67.63C276.52 67.17 276.345 66.805 275.995 66.535C275.645 66.265 275.165 66.13 274.555 66.13C273.985 66.13 273.535 66.265 273.205 66.535C272.885 66.795 272.725 67.16 272.725 67.63C272.725 68.1 272.88 68.465 273.19 68.725C273.51 68.975 273.955 69.1 274.525 69.1ZM281.608 63.43C281.608 63.1 281.708 62.84 281.908 62.65C282.118 62.46 282.433 62.365 282.853 62.365V63.205L282.553 63.595L282.598 63.655C282.908 63.255 283.263 62.94 283.663 62.71C284.063 62.48 284.538 62.365 285.088 62.365C285.948 62.365 286.643 62.605 287.173 63.085C287.703 63.555 287.968 64.185 287.968 64.975V67.54C287.968 68.33 287.693 68.96 287.143 69.43C286.593 69.9 285.878 70.135 284.998 70.135C284.528 70.135 284.093 70.04 283.693 69.85C283.303 69.65 282.958 69.39 282.658 69.07L282.613 69.145C282.683 69.245 282.788 69.355 282.928 69.475V72.115C282.928 72.795 282.488 73.135 281.608 73.135V63.43ZM284.803 68.98C285.393 68.98 285.853 68.85 286.183 68.59C286.513 68.32 286.678 67.95 286.678 67.48V65.035C286.678 64.545 286.513 64.17 286.183 63.91C285.853 63.65 285.388 63.52 284.788 63.52C284.258 63.52 283.813 63.66 283.453 63.94C283.093 64.21 282.913 64.55 282.913 64.96V67.555C282.913 67.955 283.083 68.295 283.423 68.575C283.763 68.845 284.223 68.98 284.803 68.98ZM291.714 63.43C291.714 63.1 291.814 62.84 292.014 62.65C292.224 62.46 292.539 62.365 292.959 62.365V63.205L292.659 63.595L292.704 63.655C293.014 63.255 293.369 62.94 293.769 62.71C294.169 62.48 294.644 62.365 295.194 62.365C296.054 62.365 296.749 62.605 297.279 63.085C297.809 63.555 298.074 64.185 298.074 64.975V67.54C298.074 68.33 297.799 68.96 297.249 69.43C296.699 69.9 295.984 70.135 295.104 70.135C294.634 70.135 294.199 70.04 293.799 69.85C293.409 69.65 293.064 69.39 292.764 69.07L292.719 69.145C292.789 69.245 292.894 69.355 293.034 69.475V72.115C293.034 72.795 292.594 73.135 291.714 73.135V63.43ZM294.909 68.98C295.499 68.98 295.959 68.85 296.289 68.59C296.619 68.32 296.784 67.95 296.784 67.48V65.035C296.784 64.545 296.619 64.17 296.289 63.91C295.959 63.65 295.494 63.52 294.894 63.52C294.364 63.52 293.919 63.66 293.559 63.94C293.199 64.21 293.019 64.55 293.019 64.96V67.555C293.019 67.955 293.189 68.295 293.529 68.575C293.869 68.845 294.329 68.98 294.909 68.98ZM301.881 73.12C301.261 73.12 300.936 72.76 300.906 72.04C301.206 72.08 301.421 72.1 301.551 72.1C301.991 72.1 302.341 71.97 302.601 71.71C302.871 71.45 303.146 71 303.426 70.36L303.726 69.685L300.771 62.47C300.841 62.44 300.931 62.415 301.041 62.395C301.161 62.375 301.261 62.365 301.341 62.365C301.551 62.375 301.741 62.435 301.911 62.545C302.081 62.645 302.201 62.78 302.271 62.95L304.281 68.08L304.071 68.68L304.161 68.725L306.441 62.95C306.511 62.77 306.626 62.63 306.786 62.53C306.956 62.42 307.146 62.365 307.356 62.365C307.446 62.365 307.546 62.375 307.656 62.395C307.776 62.415 307.866 62.44 307.926 62.47L304.551 70.735C304.221 71.535 303.851 72.13 303.441 72.52C303.031 72.92 302.511 73.12 301.881 73.12ZM320.259 60.745H316.599C316.599 59.915 316.989 59.5 317.769 59.5H325.314C325.314 60.33 324.924 60.745 324.144 60.745H321.669V68.965C321.669 69.345 321.549 69.635 321.309 69.835C321.069 70.035 320.719 70.135 320.259 70.135V60.745ZM329.615 70.135C329.005 70.135 328.46 70.02 327.98 69.79C327.5 69.55 327.125 69.225 326.855 68.815C326.585 68.395 326.45 67.925 326.45 67.405V65.185C326.45 64.655 326.59 64.175 326.87 63.745C327.16 63.315 327.545 62.98 328.025 62.74C328.515 62.49 329.045 62.365 329.615 62.365C330.185 62.365 330.705 62.485 331.175 62.725C331.655 62.965 332.03 63.295 332.3 63.715C332.58 64.135 332.72 64.61 332.72 65.14V66.1C332.72 66.26 332.66 66.395 332.54 66.505C332.42 66.615 332.275 66.67 332.105 66.67H327.725V67.345C327.725 67.855 327.885 68.265 328.205 68.575C328.535 68.885 329.005 69.04 329.615 69.04C330.225 69.04 330.69 68.905 331.01 68.635C331.33 68.365 331.49 68 331.49 67.54C331.79 67.52 332.04 67.58 332.24 67.72C332.45 67.85 332.555 68.045 332.555 68.305C332.555 68.625 332.415 68.925 332.135 69.205C331.865 69.485 331.505 69.71 331.055 69.88C330.605 70.05 330.125 70.135 329.615 70.135ZM331.505 65.65V65.14C331.505 64.64 331.33 64.235 330.98 63.925C330.64 63.605 330.185 63.445 329.615 63.445C329.045 63.445 328.585 63.605 328.235 63.925C327.895 64.235 327.725 64.64 327.725 65.14V65.65H331.505ZM338.521 70.135C337.661 70.135 336.966 69.905 336.436 69.445C335.916 68.985 335.656 68.38 335.656 67.63C335.656 66.87 335.931 66.26 336.481 65.8C337.031 65.33 337.756 65.095 338.656 65.095C339.616 65.095 340.406 65.435 341.026 66.115L341.086 66.055C340.976 65.935 340.851 65.81 340.711 65.68V65.05C340.711 64.54 340.551 64.145 340.231 63.865C339.911 63.585 339.456 63.445 338.866 63.445C337.816 63.445 337.066 63.86 336.616 64.69C336.456 64.61 336.321 64.505 336.211 64.375C336.111 64.235 336.061 64.095 336.061 63.955C336.061 63.685 336.196 63.43 336.466 63.19C336.736 62.94 337.091 62.74 337.531 62.59C337.981 62.44 338.451 62.365 338.941 62.365C339.891 62.365 340.636 62.6 341.176 63.07C341.726 63.54 342.001 64.19 342.001 65.02V69.13C342.001 69.48 341.901 69.735 341.701 69.895C341.501 70.055 341.186 70.135 340.756 70.135V69.43C340.966 69.21 341.081 69.08 341.101 69.04L341.041 68.98C340.391 69.75 339.551 70.135 338.521 70.135ZM338.746 69.1C339.366 69.1 339.851 68.97 340.201 68.71C340.561 68.45 340.741 68.09 340.741 67.63C340.741 67.17 340.566 66.805 340.216 66.535C339.866 66.265 339.386 66.13 338.776 66.13C338.206 66.13 337.756 66.265 337.426 66.535C337.106 66.795 336.946 67.16 336.946 67.63C336.946 68.1 337.101 68.465 337.411 68.725C337.731 68.975 338.176 69.1 338.746 69.1ZM345.829 63.475C345.829 62.735 346.244 62.365 347.074 62.365V63.325C346.944 63.465 346.839 63.6 346.759 63.73L346.819 63.79C347.139 63.34 347.479 62.99 347.839 62.74C348.199 62.49 348.614 62.365 349.084 62.365C349.994 62.365 350.619 62.8 350.959 63.67C351.529 62.8 352.289 62.365 353.239 62.365C353.949 62.365 354.494 62.605 354.874 63.085C355.264 63.555 355.459 64.175 355.459 64.945V69.175C355.459 69.505 355.349 69.75 355.129 69.91C354.919 70.06 354.599 70.135 354.169 70.135V65.02C354.169 64.54 354.069 64.165 353.869 63.895C353.669 63.625 353.354 63.49 352.924 63.49C352.474 63.49 352.089 63.645 351.769 63.955C351.449 64.255 351.289 64.66 351.289 65.17V69.175C351.289 69.505 351.184 69.75 350.974 69.91C350.764 70.06 350.444 70.135 350.014 70.135V65.02C350.014 64.54 349.914 64.165 349.714 63.895C349.514 63.625 349.199 63.49 348.769 63.49C348.309 63.49 347.919 63.655 347.599 63.985C347.279 64.315 347.119 64.72 347.119 65.2V69.175C347.119 69.505 347.009 69.75 346.789 69.91C346.579 70.06 346.259 70.135 345.829 70.135V63.475Z" fill="#01C58E"/>
</svg>
